<svg width="128" height="128" viewBox="0 0 128 128" fill="none" xmlns="http://www.w3.org/2000/svg">
<rect width="128" height="128" rx="64" fill="url(#paint0_linear_16_60)"/>
<path fill-rule="evenodd" clip-rule="evenodd" d="M65.4722 28.8169C70.0799 28.8169 74.2077 29.4566 77.8554 30.7365C81.5673 32.0165 84.8313 33.8091 87.6472 36.113C90.5269 38.3528 90.5274 38.4171 95.0391 44.1768C86.4635 40.8889 83.6469 45.1042 83.3268 50.9919C81.193 47.2168 79.327 45.6802 76.3192 43.8883C73.3754 42.0326 69.7598 41.1043 65.4722 41.1043C61.4405 41.1043 57.7605 42.0325 54.4327 43.8883C51.1049 45.6802 48.4486 48.272 46.4647 51.6637C44.5448 55.0555 43.5848 59.0877 43.5848 63.7594C43.5848 68.3671 44.5449 72.4311 46.4647 75.9509C48.3846 79.4067 50.9763 82.0947 54.2401 84.0147C57.5679 85.9346 61.3124 86.8946 65.4722 86.8946C68.2239 86.8946 70.6875 86.5424 72.8633 85.8385C75.0392 85.0705 76.8955 84.0149 78.4314 82.671C80.0314 81.3271 81.3753 79.7911 82.4633 78.0631C83.1777 76.9285 84.6435 73.5689 85.7293 70.8158H69.184C63.1092 70.8158 58.1843 64.8909 58.1842 58.816H98.797V61.894L98.7952 61.9148C98.8819 64.9846 98.6809 67.95 98.1885 70.8113V70.8158C97.887 72.5665 97.477 74.2783 96.9588 75.9509C95.6148 80.4946 93.4709 84.5267 90.5271 88.0466C87.6472 91.5024 84.0629 94.2223 79.7751 96.2062C75.4873 98.1901 70.5917 99.1829 65.0879 99.1829C59.9041 99.1829 55.1042 98.3184 50.6883 96.5905C46.3365 94.8625 42.5283 92.4302 39.2645 89.2944C36.0648 86.1586 33.5685 82.4148 31.7767 78.0631C30.0488 73.7113 29.1852 68.9431 29.1852 63.7594C29.1852 58.5757 30.0815 53.8401 31.8734 49.5523C33.7293 45.2006 36.2891 41.4888 39.5529 38.4169C42.8168 35.345 46.6568 32.9765 51.0726 31.3125C55.4884 29.6486 60.2885 28.8169 65.4722 28.8169ZM66.5726 61.8162C65.8057 61.8163 65.1838 62.4381 65.1838 63.2051C65.184 63.9719 65.8058 64.5939 66.5726 64.5939H71.2022C71.9691 64.5939 72.5909 63.9719 72.5911 63.2051C72.5911 62.438 71.9693 61.8162 71.2022 61.8162H66.5726Z" fill="white"/>
<defs>
<linearGradient id="paint0_linear_16_60" x1="-0.5" y1="0" x2="127.5" y2="128" gradientUnits="userSpaceOnUse">
<stop stop-color="#00ADD8"/>
<stop offset="0.42" stop-color="#248BFF"/>
<stop offset="1" stop-color="#5260FF"/>
</linearGradient>
</defs>
</svg>
